<?xml version="1.0" encoding="UTF-8" standalone="no"?><!DOCTYPE svg PUBLIC "-//W3C//DTD SVG 1.1//EN" "http://www.w3.org/Graphics/SVG/1.1/DTD/svg11.dtd"><svg width="100%" height="100%" viewBox="0 0 57 63" version="1.1" xmlns="http://www.w3.org/2000/svg" xmlns:xlink="http://www.w3.org/1999/xlink" xml:space="preserve" xmlns:serif="http://www.serif.com/" style="fill-rule:evenodd;clip-rule:evenodd;stroke-linejoin:round;stroke-miterlimit:2;"><rect id="Grafic-element-background" x="0" y="0" width="56.626" height="62.617" style="fill:#fff;"/><g opacity="0.05"><circle cx="28.622" cy="31.931" r="4.473" style="fill:#383942;"/><path d="M31.114,45.313l0,11.093c0,0.962 -0.781,1.743 -1.743,1.743l-1.498,0c-0.962,0 -1.743,-0.781 -1.743,-1.743l0,-11.093c0,-0.962 0.781,-1.743 1.743,-1.743l1.498,0c0.962,0 1.743,0.781 1.743,1.743Z" style="fill:#383942;"/><path d="M31.114,6.743l0,11.093c0,0.962 -0.781,1.743 -1.743,1.743l-1.498,0c-0.962,0 -1.743,-0.781 -1.743,-1.743l0,-11.093c0,-0.962 0.781,-1.743 1.743,-1.743l1.498,0c0.962,0 1.743,0.781 1.743,1.743Z" style="fill:#383942;"/><path d="M15.478,26.863l-9.607,-5.547c-0.833,-0.481 -1.119,-1.548 -0.638,-2.381l0.749,-1.297c0.481,-0.833 1.548,-1.119 2.381,-0.638l9.607,5.547c0.833,0.481 1.119,1.548 0.638,2.381l-0.749,1.297c-0.481,0.833 -1.548,1.119 -2.381,0.638Z" style="fill:#383942;"/><path d="M48.882,46.149l-9.607,-5.547c-0.833,-0.481 -1.119,-1.548 -0.638,-2.381l0.749,-1.297c0.481,-0.833 1.548,-1.119 2.381,-0.638l9.607,5.547c0.833,0.481 1.119,1.548 0.638,2.381l-0.749,1.297c-0.481,0.833 -1.548,1.119 -2.381,0.638Z" style="fill:#383942;"/><path d="M39.275,22.548l9.607,-5.547c0.833,-0.481 1.9,-0.195 2.381,0.638l0.749,1.297c0.481,0.833 0.195,1.9 -0.638,2.381l-9.607,5.547c-0.833,0.481 -1.9,0.195 -2.381,-0.638l-0.749,-1.297c-0.481,-0.833 -0.195,-1.9 0.638,-2.381Z" style="fill:#383942;"/><path d="M5.871,41.833l9.607,-5.547c0.833,-0.481 1.9,-0.195 2.381,0.638l0.749,1.297c0.481,0.833 0.195,1.9 -0.638,2.381l-9.607,5.547c-0.833,0.481 -1.9,0.195 -2.381,-0.638l-0.749,-1.297c-0.481,-0.833 -0.195,-1.9 0.638,-2.381Z" style="fill:#383942;"/></g></svg>