<?xml version="1.0" encoding="UTF-8" standalone="no"?><!DOCTYPE svg PUBLIC "-//W3C//DTD SVG 1.1//EN" "http://www.w3.org/Graphics/SVG/1.1/DTD/svg11.dtd"><svg width="100%" height="100%" viewBox="0 0 69 67" version="1.1" xmlns="http://www.w3.org/2000/svg" xmlns:xlink="http://www.w3.org/1999/xlink" xml:space="preserve" xmlns:serif="http://www.serif.com/" style="fill-rule:evenodd;clip-rule:evenodd;stroke-linejoin:round;stroke-miterlimit:2;"><rect id="Logo-jgv-Favicon-32px" x="0" y="0" width="68.557" height="66.667" style="fill:none;"/><g id="Logo1"></g><g id="Logo2"><path d="M50.717,19.085l-11.89,14.132l0,-9.079l-13.404,0.006l0,5.03l5.479,0l0,6.009c-0.867,0.232 -1.831,0.391 -2.8,0.391c-6.845,0 -10.897,-4.008 -10.897,-9.817c0,-6.619 4.548,-10.897 12.383,-10.897c3.512,0 7.07,1.171 9.231,2.297l0,-7.16c-1.981,-1.261 -5.584,-2.252 -9.906,-2.252c-11.933,0 -19.633,7.565 -19.633,17.967c0,9.907 7.205,17.021 18.462,17.021c1.09,0 2.149,-0.077 3.161,-0.206l0,2.82c0,3.647 -1.756,6.033 -5.088,6.033c-1.261,0 -2.342,-0.224 -3.287,-0.63l0,6.889c1.126,0.585 2.992,1.104 4.744,1.225c6.682,0.459 11.163,-1.71 11.163,-13.545l20.845,-26.295l-8.562,0.061Z" style="fill:#0f0220;fill-rule:nonzero;"/></g></svg>